<svg xmlns="http://www.w3.org/2000/svg" width="960" height="580" viewBox="0 0 960 580" role="img" aria-label="Codeforces statistics for qiushan233">
<style>
  .bg { fill: #ffffff; }
  .shell { fill: #ffffff; stroke: #d0d7de; }
  .soft { fill: #f6f8fa; stroke: #d8dee4; }
  .metric-card { fill: #ffffff; stroke: #d8dee4; }
  .title { font: 700 26px -apple-system,BlinkMacSystemFont,"Segoe UI",sans-serif; fill: #24292f; }
  .subtitle { font: 13px -apple-system,BlinkMacSystemFont,"Segoe UI",sans-serif; fill: #6e7781; }
  .section-title { font: 700 15px -apple-system,BlinkMacSystemFont,"Segoe UI",sans-serif; fill: #24292f; }
  .metric-label { font: 600 12px -apple-system,BlinkMacSystemFont,"Segoe UI",sans-serif; fill: #57606a; }
  .metric-value { font: 800 24px -apple-system,BlinkMacSystemFont,"Segoe UI",sans-serif; fill: #24292f; }
  .muted { font: 12px -apple-system,BlinkMacSystemFont,"Segoe UI",sans-serif; fill: #6e7781; }
  .small { font-size: 11px; }
  .rank { fill: #03a89e; }
  .grid { stroke: #d8dee4; stroke-width: 1; }
  .badge-bg { fill: #03a89e; opacity: 0.14; }
  .badge-text { font: 700 12px -apple-system,BlinkMacSystemFont,"Segoe UI",sans-serif; fill: #03a89e; }
  .snake-face { fill: #1f883d; stroke: #ffffff; stroke-width: 2; filter: drop-shadow(0 1px 2px rgba(31,136,61,0.22)); }
  .snake-eye { fill: #ffffff; }
  .snake-shine { fill: #1f883d; opacity: 0.85; }
  .snake-smile { fill: none; stroke: #ffffff; stroke-width: 1.2; stroke-linecap: round; }
  .snake-tongue { fill: none; stroke: #f85149; stroke-width: 1.2; stroke-linecap: round; }
</style>
<rect class="bg" width="960" height="580" rx="12"/>
<rect class="shell" x="18" y="18" width="924" height="544" rx="12"/>
<text x="36" y="58" class="title">Codeforces</text>
<text x="36" y="82" class="subtitle">@qiushan233 · updated 2026-04-29 20:14</text>
<rect x="805" y="38" width="96" height="30" rx="15" class="badge-bg"/>
<text x="828" y="58" class="badge-text">specialist</text>
<rect x="36" y="96" width="132" height="74" rx="8" class="metric-card"/><text x="52" y="122" class="metric-label">Current rating</text><text x="52" y="153" class="metric-value rank">1403</text><rect x="184" y="96" width="132" height="74" rx="8" class="metric-card"/><text x="200" y="122" class="metric-label">Max rating</text><text x="200" y="153" class="metric-value">1403</text><rect x="332" y="96" width="132" height="74" rx="8" class="metric-card"/><text x="348" y="122" class="metric-label">Rank</text><text x="348" y="153" class="metric-value rank">specialist</text><rect x="480" y="96" width="132" height="74" rx="8" class="metric-card"/><text x="496" y="122" class="metric-label">Max rank</text><text x="496" y="153" class="metric-value">specialist</text><rect x="628" y="96" width="132" height="74" rx="8" class="metric-card"/><text x="644" y="122" class="metric-label">Solved</text><text x="644" y="153" class="metric-value">121</text><rect x="776" y="96" width="132" height="74" rx="8" class="metric-card"/><text x="792" y="122" class="metric-label">Active days</text><text x="792" y="153" class="metric-value">36</text>
<rect class="soft" x="36" y="192" width="888" height="158" rx="10"/>
<text x="58" y="222" class="section-title">Contest rating trend</text>
<text x="230" y="222" class="muted">Codeforces Round 1095 (Div. 2)</text>
<line x1="86" y1="320" x2="856" y2="320" class="grid"/>
<line x1="86" y1="242" x2="86" y2="320" class="grid"/>
<text x="868" y="247" class="muted">1500</text>
<text x="868" y="320" class="muted">442</text>
<polyline points="86.0,320.0 214.3,294.8 342.7,278.9 471.0,264.0 599.3,255.2 727.7,257.4 856.0,249.2" fill="none" stroke="#f1c232" stroke-width="3" stroke-linecap="round" stroke-linejoin="round"/><circle cx="86.0" cy="320.0" r="3.5" fill="#fff" stroke="#f1c232" stroke-width="2"/><circle cx="214.3" cy="294.8" r="3.5" fill="#fff" stroke="#f1c232" stroke-width="2"/><circle cx="342.7" cy="278.9" r="3.5" fill="#fff" stroke="#f1c232" stroke-width="2"/><circle cx="471.0" cy="264.0" r="3.5" fill="#fff" stroke="#f1c232" stroke-width="2"/><circle cx="599.3" cy="255.2" r="3.5" fill="#fff" stroke="#f1c232" stroke-width="2"/><circle cx="727.7" cy="257.4" r="3.5" fill="#fff" stroke="#f1c232" stroke-width="2"/><circle cx="856.0" cy="249.2" r="3.5" fill="#fff" stroke="#f1c232" stroke-width="2"/>
<rect class="soft" x="36" y="370" width="888" height="166" rx="10"/>
<text x="58" y="398" class="section-title">Daily accepted submissions</text>
<text x="260" y="398" class="muted">137 accepted submissions in visible history</text>

<g class="snake-head">
  <animateMotion dur="300.0s" repeatCount="indefinite" rotate="auto" path="M 153.5 437.5 L 167.5 437.5 L 181.5 507.5 L 195.5 465.5 L 335.5 465.5 L 363.5 479.5 L 391.5 465.5 L 475.5 479.5 L 167.5 451.5 L 279.5 479.5 L 335.5 451.5 L 447.5 437.5 L 153.5 465.5 L 167.5 493.5 L 195.5 521.5 L 265.5 451.5 L 265.5 521.5 L 391.5 451.5 L 825.5 437.5 L 825.5 465.5 L 139.5 521.5 L 209.5 437.5 L 321.5 479.5 L 811.5 451.5 L 181.5 479.5 L 433.5 479.5 L 811.5 437.5 L 811.5 479.5 L 797.5 521.5 L 195.5 451.5 L 195.5 479.5 L 167.5 479.5 L 195.5 437.5 L 811.5 465.5 L 825.5 451.5 L 195.5 507.5"/>
  <ellipse cx="0" cy="0" rx="8.5" ry="7" class="snake-face"/>
  <circle cx="-2.8" cy="-2.2" r="1.4" class="snake-eye"/>
  <circle cx="2.8" cy="-2.2" r="1.4" class="snake-eye"/>
  <circle cx="-3.2" cy="-2.5" r="0.45" class="snake-shine"/>
  <circle cx="2.4" cy="-2.5" r="0.45" class="snake-shine"/>
  <path d="M -3 2 Q 0 4 3 2" class="snake-smile"/>
  <path d="M 8 0 L 12 -2 M 8 0 L 12 2" class="snake-tongue"/>
</g>

<!-- Avatar source: https://userpic.codeforces.org/4873128/title/513ce3c1d62dc48.jpg -->
</svg>
