<svg xmlns="http://www.w3.org/2000/svg" width="860" height="430" viewBox="0 0 860 430" role="img" aria-label="Codeforces statistics for qiushan233">
<style>
  .bg { fill: #ffffff; }
  .panel { fill: #f6f8fa; stroke: #d0d7de; }
  .title { font: 700 24px -apple-system,BlinkMacSystemFont,"Segoe UI",sans-serif; fill: #24292f; }
  .label { font: 600 13px -apple-system,BlinkMacSystemFont,"Segoe UI",sans-serif; fill: #57606a; }
  .value { font: 700 22px -apple-system,BlinkMacSystemFont,"Segoe UI",sans-serif; fill: #24292f; }
  .muted { font: 12px -apple-system,BlinkMacSystemFont,"Segoe UI",sans-serif; fill: #6e7781; }
  .small { font-size: 11px; }
  .rank { fill: #03a89e; }
  .grid { stroke: #d8dee4; stroke-width: 1; }
</style>
<rect class="bg" width="860" height="430" rx="8"/>
<rect class="panel" x="16" y="16" width="828" height="398" rx="8"/>
<text x="36" y="54" class="title">Codeforces / qiushan233</text>
<text x="36" y="78" class="muted">Updated 2026-04-29 18:18</text>
<text x="36" y="112" class="label">Current rating</text>
<text x="36" y="142" class="value rank">1403</text>
<text x="180" y="112" class="label">Max rating</text>
<text x="180" y="142" class="value">1403</text>
<text x="314" y="112" class="label">Rank</text>
<text x="314" y="142" class="value rank">specialist</text>
<text x="454" y="112" class="label">Max rank</text>
<text x="454" y="142" class="value">specialist</text>
<text x="620" y="112" class="label">Solved</text>
<text x="620" y="142" class="value">120</text>
<text x="734" y="112" class="label">Active days</text>
<text x="734" y="142" class="value">35</text>
<line x1="72" y1="226" x2="780" y2="226" class="grid"/>
<line x1="72" y1="126" x2="72" y2="226" class="grid"/>
<text x="36" y="204" class="label">Contest rating trend</text>
<text x="36" y="224" class="muted">Codeforces Round 1095 (Div. 2)</text>
<text x="792" y="132" class="muted">1500</text>
<text x="792" y="226" class="muted">442</text>
<polyline points="72.0,226.0 190.0,193.7 308.0,173.3 426.0,154.3 544.0,142.9 662.0,145.8 780.0,135.2" fill="none" stroke="#f1c232" stroke-width="3" stroke-linecap="round" stroke-linejoin="round"/><circle cx="72.0" cy="226.0" r="3.5" fill="#fff" stroke="#f1c232" stroke-width="2"/><circle cx="190.0" cy="193.7" r="3.5" fill="#fff" stroke="#f1c232" stroke-width="2"/><circle cx="308.0" cy="173.3" r="3.5" fill="#fff" stroke="#f1c232" stroke-width="2"/><circle cx="426.0" cy="154.3" r="3.5" fill="#fff" stroke="#f1c232" stroke-width="2"/><circle cx="544.0" cy="142.9" r="3.5" fill="#fff" stroke="#f1c232" stroke-width="2"/><circle cx="662.0" cy="145.8" r="3.5" fill="#fff" stroke="#f1c232" stroke-width="2"/><circle cx="780.0" cy="135.2" r="3.5" fill="#fff" stroke="#f1c232" stroke-width="2"/>
<text x="36" y="258" class="label">Daily accepted submissions</text>
<text x="232" y="258" class="muted">134 accepted submissions in visible history</text>
<text x="72" y="278" class="muted small">Apr</text><text x="87" y="278" class="muted small">May</text><text x="147" y="278" class="muted small">Jun</text><text x="222" y="278" class="muted small">Jul</text><text x="282" y="278" class="muted small">Aug</text><text x="342" y="278" class="muted small">Sep</text><text x="417" y="278" class="muted small">Oct</text><text x="477" y="278" class="muted small">Nov</text><text x="537" y="278" class="muted small">Dec</text><text x="612" y="278" class="muted small">Jan</text><text x="672" y="278" class="muted small">Feb</text><text x="732" y="278" class="muted small">Mar</text><text x="807" y="278" class="muted small">Apr</text>
<text x="24" y="317" class="muted small">Mon</text><text x="24" y="347" class="muted small">Wed</text><text x="24" y="377" class="muted small">Fri</text>
<rect x="72" y="292" width="12" height="12" rx="2" fill="#ebedf0"><title>2025-04-28: 0 accepted submissions</title></rect><rect x="72" y="307" width="12" height="12" rx="2" fill="#ebedf0"><title>2025-04-29: 0 accepted submissions</title></rect><rect x="72" y="322" width="12" height="12" rx="2" fill="#ebedf0"><title>2025-04-30: 0 accepted submissions</title></rect><rect x="72" y="337" width="12" height="12" rx="2" fill="#ebedf0"><title>2025-05-01: 0 accepted submissions</title></rect><rect x="72" y="352" width="12" height="12" rx="2" fill="#ebedf0"><title>2025-05-02: 0 accepted submissions</title></rect><rect x="72" y="367" width="12" height="12" rx="2" fill="#ebedf0"><title>2025-05-03: 0 accepted submissions</title></rect><rect x="72" y="382" width="12" height="12" rx="2" fill="#ebedf0"><title>2025-05-04: 0 accepted submissions</title></rect><rect x="87" y="292" width="12" height="12" rx="2" fill="#ebedf0"><title>2025-05-05: 0 accepted submissions</title></rect><rect x="87" y="307" width="12" height="12" rx="2" fill="#ebedf0"><title>2025-05-06: 0 accepted submissions</title></rect><rect x="87" y="322" width="12" height="12" rx="2" fill="#ebedf0"><title>2025-05-07: 0 accepted submissions</title></rect><rect x="87" y="337" width="12" height="12" rx="2" fill="#ebedf0"><title>2025-05-08: 0 accepted submissions</title></rect><rect x="87" y="352" width="12" height="12" rx="2" fill="#ebedf0"><title>2025-05-09: 0 accepted submissions</title></rect><rect x="87" y="367" width="12" height="12" rx="2" fill="#ebedf0"><title>2025-05-10: 0 accepted submissions</title></rect><rect x="87" y="382" width="12" height="12" rx="2" fill="#ebedf0"><title>2025-05-11: 0 accepted submissions</title></rect><rect x="102" y="292" width="12" height="12" rx="2" fill="#ebedf0"><title>2025-05-12: 0 accepted submissions</title></rect><rect x="102" y="307" width="12" height="12" rx="2" fill="#ebedf0"><title>2025-05-13: 0 accepted submissions</title></rect><rect x="102" y="322" width="12" height="12" rx="2" fill="#ebedf0"><title>2025-05-14: 0 accepted submissions</title></rect><rect x="102" y="337" width="12" height="12" rx="2" fill="#ebedf0"><title>2025-05-15: 0 accepted submissions</title></rect><rect x="102" y="352" width="12" height="12" rx="2" fill="#ebedf0"><title>2025-05-16: 0 accepted submissions</title></rect><rect x="102" y="367" width="12" height="12" rx="2" fill="#ebedf0"><title>2025-05-17: 0 accepted submissions</title></rect><rect x="102" y="382" width="12" height="12" rx="2" fill="#ebedf0"><title>2025-05-18: 0 accepted submissions</title></rect><rect x="117" y="292" width="12" height="12" rx="2" fill="#ebedf0"><title>2025-05-19: 0 accepted submissions</title></rect><rect x="117" y="307" width="12" height="12" rx="2" fill="#ebedf0"><title>2025-05-20: 0 accepted submissions</title></rect><rect x="117" y="322" width="12" height="12" rx="2" fill="#ebedf0"><title>2025-05-21: 0 accepted submissions</title></rect><rect x="117" y="337" width="12" height="12" rx="2" fill="#ebedf0"><title>2025-05-22: 0 accepted submissions</title></rect><rect x="117" y="352" width="12" height="12" rx="2" fill="#ebedf0"><title>2025-05-23: 0 accepted submissions</title></rect><rect x="117" y="367" width="12" height="12" rx="2" fill="#ebedf0"><title>2025-05-24: 0 accepted submissions</title></rect><rect x="117" y="382" width="12" height="12" rx="2" fill="#30a14e"><title>2025-05-25: 4 accepted submissions</title></rect><rect x="132" y="292" width="12" height="12" rx="2" fill="#9be9a8"><title>2025-05-26: 1 accepted submissions</title></rect><rect x="132" y="307" width="12" height="12" rx="2" fill="#ebedf0"><title>2025-05-27: 0 accepted submissions</title></rect><rect x="132" y="322" width="12" height="12" rx="2" fill="#30a14e"><title>2025-05-28: 3 accepted submissions</title></rect><rect x="132" y="337" width="12" height="12" rx="2" fill="#ebedf0"><title>2025-05-29: 0 accepted submissions</title></rect><rect x="132" y="352" width="12" height="12" rx="2" fill="#ebedf0"><title>2025-05-30: 0 accepted submissions</title></rect><rect x="132" y="367" width="12" height="12" rx="2" fill="#ebedf0"><title>2025-05-31: 0 accepted submissions</title></rect><rect x="132" y="382" width="12" height="12" rx="2" fill="#ebedf0"><title>2025-06-01: 0 accepted submissions</title></rect><rect x="147" y="292" width="12" height="12" rx="2" fill="#9be9a8"><title>2025-06-02: 1 accepted submissions</title></rect><rect x="147" y="307" width="12" height="12" rx="2" fill="#40c463"><title>2025-06-03: 2 accepted submissions</title></rect><rect x="147" y="322" width="12" height="12" rx="2" fill="#ebedf0"><title>2025-06-04: 0 accepted submissions</title></rect><rect x="147" y="337" width="12" height="12" rx="2" fill="#216e39"><title>2025-06-05: 8 accepted submissions</title></rect><rect x="147" y="352" width="12" height="12" rx="2" fill="#30a14e"><title>2025-06-06: 3 accepted submissions</title></rect><rect x="147" y="367" width="12" height="12" rx="2" fill="#ebedf0"><title>2025-06-07: 0 accepted submissions</title></rect><rect x="147" y="382" width="12" height="12" rx="2" fill="#ebedf0"><title>2025-06-08: 0 accepted submissions</title></rect><rect x="162" y="292" width="12" height="12" rx="2" fill="#ebedf0"><title>2025-06-09: 0 accepted submissions</title></rect><rect x="162" y="307" width="12" height="12" rx="2" fill="#ebedf0"><title>2025-06-10: 0 accepted submissions</title></rect><rect x="162" y="322" width="12" height="12" rx="2" fill="#ebedf0"><title>2025-06-11: 0 accepted submissions</title></rect><rect x="162" y="337" width="12" height="12" rx="2" fill="#216e39"><title>2025-06-12: 5 accepted submissions</title></rect><rect x="162" y="352" width="12" height="12" rx="2" fill="#ebedf0"><title>2025-06-13: 0 accepted submissions</title></rect><rect x="162" y="367" width="12" height="12" rx="2" fill="#9be9a8"><title>2025-06-14: 1 accepted submissions</title></rect><rect x="162" y="382" width="12" height="12" rx="2" fill="#ebedf0"><title>2025-06-15: 0 accepted submissions</title></rect><rect x="177" y="292" width="12" height="12" rx="2" fill="#216e39"><title>2025-06-16: 8 accepted submissions</title></rect><rect x="177" y="307" width="12" height="12" rx="2" fill="#216e39"><title>2025-06-17: 7 accepted submissions</title></rect><rect x="177" y="322" width="12" height="12" rx="2" fill="#9be9a8"><title>2025-06-18: 1 accepted submissions</title></rect><rect x="177" y="337" width="12" height="12" rx="2" fill="#216e39"><title>2025-06-19: 7 accepted submissions</title></rect><rect x="177" y="352" width="12" height="12" rx="2" fill="#ebedf0"><title>2025-06-20: 0 accepted submissions</title></rect><rect x="177" y="367" width="12" height="12" rx="2" fill="#216e39"><title>2025-06-21: 9 accepted submissions</title></rect><rect x="177" y="382" width="12" height="12" rx="2" fill="#30a14e"><title>2025-06-22: 3 accepted submissions</title></rect><rect x="192" y="292" width="12" height="12" rx="2" fill="#30a14e"><title>2025-06-23: 4 accepted submissions</title></rect><rect x="192" y="307" width="12" height="12" rx="2" fill="#ebedf0"><title>2025-06-24: 0 accepted submissions</title></rect><rect x="192" y="322" width="12" height="12" rx="2" fill="#ebedf0"><title>2025-06-25: 0 accepted submissions</title></rect><rect x="192" y="337" width="12" height="12" rx="2" fill="#ebedf0"><title>2025-06-26: 0 accepted submissions</title></rect><rect x="192" y="352" width="12" height="12" rx="2" fill="#ebedf0"><title>2025-06-27: 0 accepted submissions</title></rect><rect x="192" y="367" width="12" height="12" rx="2" fill="#ebedf0"><title>2025-06-28: 0 accepted submissions</title></rect><rect x="192" y="382" width="12" height="12" rx="2" fill="#ebedf0"><title>2025-06-29: 0 accepted submissions</title></rect><rect x="207" y="292" width="12" height="12" rx="2" fill="#ebedf0"><title>2025-06-30: 0 accepted submissions</title></rect><rect x="207" y="307" width="12" height="12" rx="2" fill="#ebedf0"><title>2025-07-01: 0 accepted submissions</title></rect><rect x="207" y="322" width="12" height="12" rx="2" fill="#ebedf0"><title>2025-07-02: 0 accepted submissions</title></rect><rect x="207" y="337" width="12" height="12" rx="2" fill="#ebedf0"><title>2025-07-03: 0 accepted submissions</title></rect><rect x="207" y="352" width="12" height="12" rx="2" fill="#ebedf0"><title>2025-07-04: 0 accepted submissions</title></rect><rect x="207" y="367" width="12" height="12" rx="2" fill="#ebedf0"><title>2025-07-05: 0 accepted submissions</title></rect><rect x="207" y="382" width="12" height="12" rx="2" fill="#ebedf0"><title>2025-07-06: 0 accepted submissions</title></rect><rect x="222" y="292" width="12" height="12" rx="2" fill="#ebedf0"><title>2025-07-07: 0 accepted submissions</title></rect><rect x="222" y="307" width="12" height="12" rx="2" fill="#ebedf0"><title>2025-07-08: 0 accepted submissions</title></rect><rect x="222" y="322" width="12" height="12" rx="2" fill="#ebedf0"><title>2025-07-09: 0 accepted submissions</title></rect><rect x="222" y="337" width="12" height="12" rx="2" fill="#ebedf0"><title>2025-07-10: 0 accepted submissions</title></rect><rect x="222" y="352" width="12" height="12" rx="2" fill="#ebedf0"><title>2025-07-11: 0 accepted submissions</title></rect><rect x="222" y="367" width="12" height="12" rx="2" fill="#ebedf0"><title>2025-07-12: 0 accepted submissions</title></rect><rect x="222" y="382" width="12" height="12" rx="2" fill="#ebedf0"><title>2025-07-13: 0 accepted submissions</title></rect><rect x="237" y="292" width="12" height="12" rx="2" fill="#ebedf0"><title>2025-07-14: 0 accepted submissions</title></rect><rect x="237" y="307" width="12" height="12" rx="2" fill="#ebedf0"><title>2025-07-15: 0 accepted submissions</title></rect><rect x="237" y="322" width="12" height="12" rx="2" fill="#ebedf0"><title>2025-07-16: 0 accepted submissions</title></rect><rect x="237" y="337" width="12" height="12" rx="2" fill="#ebedf0"><title>2025-07-17: 0 accepted submissions</title></rect><rect x="237" y="352" width="12" height="12" rx="2" fill="#ebedf0"><title>2025-07-18: 0 accepted submissions</title></rect><rect x="237" y="367" width="12" height="12" rx="2" fill="#ebedf0"><title>2025-07-19: 0 accepted submissions</title></rect><rect x="237" y="382" width="12" height="12" rx="2" fill="#ebedf0"><title>2025-07-20: 0 accepted submissions</title></rect><rect x="252" y="292" width="12" height="12" rx="2" fill="#ebedf0"><title>2025-07-21: 0 accepted submissions</title></rect><rect x="252" y="307" width="12" height="12" rx="2" fill="#30a14e"><title>2025-07-22: 3 accepted submissions</title></rect><rect x="252" y="322" width="12" height="12" rx="2" fill="#ebedf0"><title>2025-07-23: 0 accepted submissions</title></rect><rect x="252" y="337" width="12" height="12" rx="2" fill="#ebedf0"><title>2025-07-24: 0 accepted submissions</title></rect><rect x="252" y="352" width="12" height="12" rx="2" fill="#ebedf0"><title>2025-07-25: 0 accepted submissions</title></rect><rect x="252" y="367" width="12" height="12" rx="2" fill="#ebedf0"><title>2025-07-26: 0 accepted submissions</title></rect><rect x="252" y="382" width="12" height="12" rx="2" fill="#30a14e"><title>2025-07-27: 3 accepted submissions</title></rect><rect x="267" y="292" width="12" height="12" rx="2" fill="#ebedf0"><title>2025-07-28: 0 accepted submissions</title></rect><rect x="267" y="307" width="12" height="12" rx="2" fill="#ebedf0"><title>2025-07-29: 0 accepted submissions</title></rect><rect x="267" y="322" width="12" height="12" rx="2" fill="#ebedf0"><title>2025-07-30: 0 accepted submissions</title></rect><rect x="267" y="337" width="12" height="12" rx="2" fill="#40c463"><title>2025-07-31: 2 accepted submissions</title></rect><rect x="267" y="352" width="12" height="12" rx="2" fill="#ebedf0"><title>2025-08-01: 0 accepted submissions</title></rect><rect x="267" y="367" width="12" height="12" rx="2" fill="#ebedf0"><title>2025-08-02: 0 accepted submissions</title></rect><rect x="267" y="382" width="12" height="12" rx="2" fill="#ebedf0"><title>2025-08-03: 0 accepted submissions</title></rect><rect x="282" y="292" width="12" height="12" rx="2" fill="#ebedf0"><title>2025-08-04: 0 accepted submissions</title></rect><rect x="282" y="307" width="12" height="12" rx="2" fill="#ebedf0"><title>2025-08-05: 0 accepted submissions</title></rect><rect x="282" y="322" width="12" height="12" rx="2" fill="#ebedf0"><title>2025-08-06: 0 accepted submissions</title></rect><rect x="282" y="337" width="12" height="12" rx="2" fill="#ebedf0"><title>2025-08-07: 0 accepted submissions</title></rect><rect x="282" y="352" width="12" height="12" rx="2" fill="#ebedf0"><title>2025-08-08: 0 accepted submissions</title></rect><rect x="282" y="367" width="12" height="12" rx="2" fill="#ebedf0"><title>2025-08-09: 0 accepted submissions</title></rect><rect x="282" y="382" width="12" height="12" rx="2" fill="#ebedf0"><title>2025-08-10: 0 accepted submissions</title></rect><rect x="297" y="292" width="12" height="12" rx="2" fill="#ebedf0"><title>2025-08-11: 0 accepted submissions</title></rect><rect x="297" y="307" width="12" height="12" rx="2" fill="#ebedf0"><title>2025-08-12: 0 accepted submissions</title></rect><rect x="297" y="322" width="12" height="12" rx="2" fill="#ebedf0"><title>2025-08-13: 0 accepted submissions</title></rect><rect x="297" y="337" width="12" height="12" rx="2" fill="#ebedf0"><title>2025-08-14: 0 accepted submissions</title></rect><rect x="297" y="352" width="12" height="12" rx="2" fill="#ebedf0"><title>2025-08-15: 0 accepted submissions</title></rect><rect x="297" y="367" width="12" height="12" rx="2" fill="#ebedf0"><title>2025-08-16: 0 accepted submissions</title></rect><rect x="297" y="382" width="12" height="12" rx="2" fill="#ebedf0"><title>2025-08-17: 0 accepted submissions</title></rect><rect x="312" y="292" width="12" height="12" rx="2" fill="#ebedf0"><title>2025-08-18: 0 accepted submissions</title></rect><rect x="312" y="307" width="12" height="12" rx="2" fill="#ebedf0"><title>2025-08-19: 0 accepted submissions</title></rect><rect x="312" y="322" width="12" height="12" rx="2" fill="#ebedf0"><title>2025-08-20: 0 accepted submissions</title></rect><rect x="312" y="337" width="12" height="12" rx="2" fill="#30a14e"><title>2025-08-21: 4 accepted submissions</title></rect><rect x="312" y="352" width="12" height="12" rx="2" fill="#ebedf0"><title>2025-08-22: 0 accepted submissions</title></rect><rect x="312" y="367" width="12" height="12" rx="2" fill="#ebedf0"><title>2025-08-23: 0 accepted submissions</title></rect><rect x="312" y="382" width="12" height="12" rx="2" fill="#ebedf0"><title>2025-08-24: 0 accepted submissions</title></rect><rect x="327" y="292" width="12" height="12" rx="2" fill="#ebedf0"><title>2025-08-25: 0 accepted submissions</title></rect><rect x="327" y="307" width="12" height="12" rx="2" fill="#40c463"><title>2025-08-26: 2 accepted submissions</title></rect><rect x="327" y="322" width="12" height="12" rx="2" fill="#9be9a8"><title>2025-08-27: 1 accepted submissions</title></rect><rect x="327" y="337" width="12" height="12" rx="2" fill="#ebedf0"><title>2025-08-28: 0 accepted submissions</title></rect><rect x="327" y="352" width="12" height="12" rx="2" fill="#ebedf0"><title>2025-08-29: 0 accepted submissions</title></rect><rect x="327" y="367" width="12" height="12" rx="2" fill="#ebedf0"><title>2025-08-30: 0 accepted submissions</title></rect><rect x="327" y="382" width="12" height="12" rx="2" fill="#ebedf0"><title>2025-08-31: 0 accepted submissions</title></rect><rect x="342" y="292" width="12" height="12" rx="2" fill="#ebedf0"><title>2025-09-01: 0 accepted submissions</title></rect><rect x="342" y="307" width="12" height="12" rx="2" fill="#ebedf0"><title>2025-09-02: 0 accepted submissions</title></rect><rect x="342" y="322" width="12" height="12" rx="2" fill="#ebedf0"><title>2025-09-03: 0 accepted submissions</title></rect><rect x="342" y="337" width="12" height="12" rx="2" fill="#ebedf0"><title>2025-09-04: 0 accepted submissions</title></rect><rect x="342" y="352" width="12" height="12" rx="2" fill="#ebedf0"><title>2025-09-05: 0 accepted submissions</title></rect><rect x="342" y="367" width="12" height="12" rx="2" fill="#ebedf0"><title>2025-09-06: 0 accepted submissions</title></rect><rect x="342" y="382" width="12" height="12" rx="2" fill="#ebedf0"><title>2025-09-07: 0 accepted submissions</title></rect><rect x="357" y="292" width="12" height="12" rx="2" fill="#ebedf0"><title>2025-09-08: 0 accepted submissions</title></rect><rect x="357" y="307" width="12" height="12" rx="2" fill="#ebedf0"><title>2025-09-09: 0 accepted submissions</title></rect><rect x="357" y="322" width="12" height="12" rx="2" fill="#ebedf0"><title>2025-09-10: 0 accepted submissions</title></rect><rect x="357" y="337" width="12" height="12" rx="2" fill="#9be9a8"><title>2025-09-11: 1 accepted submissions</title></rect><rect x="357" y="352" width="12" height="12" rx="2" fill="#ebedf0"><title>2025-09-12: 0 accepted submissions</title></rect><rect x="357" y="367" width="12" height="12" rx="2" fill="#ebedf0"><title>2025-09-13: 0 accepted submissions</title></rect><rect x="357" y="382" width="12" height="12" rx="2" fill="#ebedf0"><title>2025-09-14: 0 accepted submissions</title></rect><rect x="372" y="292" width="12" height="12" rx="2" fill="#ebedf0"><title>2025-09-15: 0 accepted submissions</title></rect><rect x="372" y="307" width="12" height="12" rx="2" fill="#ebedf0"><title>2025-09-16: 0 accepted submissions</title></rect><rect x="372" y="322" width="12" height="12" rx="2" fill="#ebedf0"><title>2025-09-17: 0 accepted submissions</title></rect><rect x="372" y="337" width="12" height="12" rx="2" fill="#ebedf0"><title>2025-09-18: 0 accepted submissions</title></rect><rect x="372" y="352" width="12" height="12" rx="2" fill="#ebedf0"><title>2025-09-19: 0 accepted submissions</title></rect><rect x="372" y="367" width="12" height="12" rx="2" fill="#ebedf0"><title>2025-09-20: 0 accepted submissions</title></rect><rect x="372" y="382" width="12" height="12" rx="2" fill="#ebedf0"><title>2025-09-21: 0 accepted submissions</title></rect><rect x="387" y="292" width="12" height="12" rx="2" fill="#ebedf0"><title>2025-09-22: 0 accepted submissions</title></rect><rect x="387" y="307" width="12" height="12" rx="2" fill="#30a14e"><title>2025-09-23: 3 accepted submissions</title></rect><rect x="387" y="322" width="12" height="12" rx="2" fill="#9be9a8"><title>2025-09-24: 1 accepted submissions</title></rect><rect x="387" y="337" width="12" height="12" rx="2" fill="#ebedf0"><title>2025-09-25: 0 accepted submissions</title></rect><rect x="387" y="352" width="12" height="12" rx="2" fill="#ebedf0"><title>2025-09-26: 0 accepted submissions</title></rect><rect x="387" y="367" width="12" height="12" rx="2" fill="#ebedf0"><title>2025-09-27: 0 accepted submissions</title></rect><rect x="387" y="382" width="12" height="12" rx="2" fill="#ebedf0"><title>2025-09-28: 0 accepted submissions</title></rect><rect x="402" y="292" width="12" height="12" rx="2" fill="#ebedf0"><title>2025-09-29: 0 accepted submissions</title></rect><rect x="402" y="307" width="12" height="12" rx="2" fill="#ebedf0"><title>2025-09-30: 0 accepted submissions</title></rect><rect x="402" y="322" width="12" height="12" rx="2" fill="#ebedf0"><title>2025-10-01: 0 accepted submissions</title></rect><rect x="402" y="337" width="12" height="12" rx="2" fill="#ebedf0"><title>2025-10-02: 0 accepted submissions</title></rect><rect x="402" y="352" width="12" height="12" rx="2" fill="#ebedf0"><title>2025-10-03: 0 accepted submissions</title></rect><rect x="402" y="367" width="12" height="12" rx="2" fill="#ebedf0"><title>2025-10-04: 0 accepted submissions</title></rect><rect x="402" y="382" width="12" height="12" rx="2" fill="#ebedf0"><title>2025-10-05: 0 accepted submissions</title></rect><rect x="417" y="292" width="12" height="12" rx="2" fill="#ebedf0"><title>2025-10-06: 0 accepted submissions</title></rect><rect x="417" y="307" width="12" height="12" rx="2" fill="#ebedf0"><title>2025-10-07: 0 accepted submissions</title></rect><rect x="417" y="322" width="12" height="12" rx="2" fill="#ebedf0"><title>2025-10-08: 0 accepted submissions</title></rect><rect x="417" y="337" width="12" height="12" rx="2" fill="#ebedf0"><title>2025-10-09: 0 accepted submissions</title></rect><rect x="417" y="352" width="12" height="12" rx="2" fill="#ebedf0"><title>2025-10-10: 0 accepted submissions</title></rect><rect x="417" y="367" width="12" height="12" rx="2" fill="#ebedf0"><title>2025-10-11: 0 accepted submissions</title></rect><rect x="417" y="382" width="12" height="12" rx="2" fill="#ebedf0"><title>2025-10-12: 0 accepted submissions</title></rect><rect x="432" y="292" width="12" height="12" rx="2" fill="#ebedf0"><title>2025-10-13: 0 accepted submissions</title></rect><rect x="432" y="307" width="12" height="12" rx="2" fill="#ebedf0"><title>2025-10-14: 0 accepted submissions</title></rect><rect x="432" y="322" width="12" height="12" rx="2" fill="#ebedf0"><title>2025-10-15: 0 accepted submissions</title></rect><rect x="432" y="337" width="12" height="12" rx="2" fill="#216e39"><title>2025-10-16: 5 accepted submissions</title></rect><rect x="432" y="352" width="12" height="12" rx="2" fill="#ebedf0"><title>2025-10-17: 0 accepted submissions</title></rect><rect x="432" y="367" width="12" height="12" rx="2" fill="#ebedf0"><title>2025-10-18: 0 accepted submissions</title></rect><rect x="432" y="382" width="12" height="12" rx="2" fill="#ebedf0"><title>2025-10-19: 0 accepted submissions</title></rect><rect x="447" y="292" width="12" height="12" rx="2" fill="#40c463"><title>2025-10-20: 2 accepted submissions</title></rect><rect x="447" y="307" width="12" height="12" rx="2" fill="#ebedf0"><title>2025-10-21: 0 accepted submissions</title></rect><rect x="447" y="322" width="12" height="12" rx="2" fill="#ebedf0"><title>2025-10-22: 0 accepted submissions</title></rect><rect x="447" y="337" width="12" height="12" rx="2" fill="#ebedf0"><title>2025-10-23: 0 accepted submissions</title></rect><rect x="447" y="352" width="12" height="12" rx="2" fill="#ebedf0"><title>2025-10-24: 0 accepted submissions</title></rect><rect x="447" y="367" width="12" height="12" rx="2" fill="#ebedf0"><title>2025-10-25: 0 accepted submissions</title></rect><rect x="447" y="382" width="12" height="12" rx="2" fill="#ebedf0"><title>2025-10-26: 0 accepted submissions</title></rect><rect x="462" y="292" width="12" height="12" rx="2" fill="#ebedf0"><title>2025-10-27: 0 accepted submissions</title></rect><rect x="462" y="307" width="12" height="12" rx="2" fill="#ebedf0"><title>2025-10-28: 0 accepted submissions</title></rect><rect x="462" y="322" width="12" height="12" rx="2" fill="#ebedf0"><title>2025-10-29: 0 accepted submissions</title></rect><rect x="462" y="337" width="12" height="12" rx="2" fill="#ebedf0"><title>2025-10-30: 0 accepted submissions</title></rect><rect x="462" y="352" width="12" height="12" rx="2" fill="#ebedf0"><title>2025-10-31: 0 accepted submissions</title></rect><rect x="462" y="367" width="12" height="12" rx="2" fill="#ebedf0"><title>2025-11-01: 0 accepted submissions</title></rect><rect x="462" y="382" width="12" height="12" rx="2" fill="#ebedf0"><title>2025-11-02: 0 accepted submissions</title></rect><rect x="477" y="292" width="12" height="12" rx="2" fill="#ebedf0"><title>2025-11-03: 0 accepted submissions</title></rect><rect x="477" y="307" width="12" height="12" rx="2" fill="#ebedf0"><title>2025-11-04: 0 accepted submissions</title></rect><rect x="477" y="322" width="12" height="12" rx="2" fill="#ebedf0"><title>2025-11-05: 0 accepted submissions</title></rect><rect x="477" y="337" width="12" height="12" rx="2" fill="#9be9a8"><title>2025-11-06: 1 accepted submissions</title></rect><rect x="477" y="352" width="12" height="12" rx="2" fill="#ebedf0"><title>2025-11-07: 0 accepted submissions</title></rect><rect x="477" y="367" width="12" height="12" rx="2" fill="#ebedf0"><title>2025-11-08: 0 accepted submissions</title></rect><rect x="477" y="382" width="12" height="12" rx="2" fill="#ebedf0"><title>2025-11-09: 0 accepted submissions</title></rect><rect x="492" y="292" width="12" height="12" rx="2" fill="#ebedf0"><title>2025-11-10: 0 accepted submissions</title></rect><rect x="492" y="307" width="12" height="12" rx="2" fill="#ebedf0"><title>2025-11-11: 0 accepted submissions</title></rect><rect x="492" y="322" width="12" height="12" rx="2" fill="#ebedf0"><title>2025-11-12: 0 accepted submissions</title></rect><rect x="492" y="337" width="12" height="12" rx="2" fill="#ebedf0"><title>2025-11-13: 0 accepted submissions</title></rect><rect x="492" y="352" width="12" height="12" rx="2" fill="#ebedf0"><title>2025-11-14: 0 accepted submissions</title></rect><rect x="492" y="367" width="12" height="12" rx="2" fill="#ebedf0"><title>2025-11-15: 0 accepted submissions</title></rect><rect x="492" y="382" width="12" height="12" rx="2" fill="#ebedf0"><title>2025-11-16: 0 accepted submissions</title></rect><rect x="507" y="292" width="12" height="12" rx="2" fill="#ebedf0"><title>2025-11-17: 0 accepted submissions</title></rect><rect x="507" y="307" width="12" height="12" rx="2" fill="#ebedf0"><title>2025-11-18: 0 accepted submissions</title></rect><rect x="507" y="322" width="12" height="12" rx="2" fill="#ebedf0"><title>2025-11-19: 0 accepted submissions</title></rect><rect x="507" y="337" width="12" height="12" rx="2" fill="#ebedf0"><title>2025-11-20: 0 accepted submissions</title></rect><rect x="507" y="352" width="12" height="12" rx="2" fill="#ebedf0"><title>2025-11-21: 0 accepted submissions</title></rect><rect x="507" y="367" width="12" height="12" rx="2" fill="#ebedf0"><title>2025-11-22: 0 accepted submissions</title></rect><rect x="507" y="382" width="12" height="12" rx="2" fill="#ebedf0"><title>2025-11-23: 0 accepted submissions</title></rect><rect x="522" y="292" width="12" height="12" rx="2" fill="#ebedf0"><title>2025-11-24: 0 accepted submissions</title></rect><rect x="522" y="307" width="12" height="12" rx="2" fill="#ebedf0"><title>2025-11-25: 0 accepted submissions</title></rect><rect x="522" y="322" width="12" height="12" rx="2" fill="#ebedf0"><title>2025-11-26: 0 accepted submissions</title></rect><rect x="522" y="337" width="12" height="12" rx="2" fill="#ebedf0"><title>2025-11-27: 0 accepted submissions</title></rect><rect x="522" y="352" width="12" height="12" rx="2" fill="#ebedf0"><title>2025-11-28: 0 accepted submissions</title></rect><rect x="522" y="367" width="12" height="12" rx="2" fill="#ebedf0"><title>2025-11-29: 0 accepted submissions</title></rect><rect x="522" y="382" width="12" height="12" rx="2" fill="#ebedf0"><title>2025-11-30: 0 accepted submissions</title></rect><rect x="537" y="292" width="12" height="12" rx="2" fill="#ebedf0"><title>2025-12-01: 0 accepted submissions</title></rect><rect x="537" y="307" width="12" height="12" rx="2" fill="#ebedf0"><title>2025-12-02: 0 accepted submissions</title></rect><rect x="537" y="322" width="12" height="12" rx="2" fill="#ebedf0"><title>2025-12-03: 0 accepted submissions</title></rect><rect x="537" y="337" width="12" height="12" rx="2" fill="#ebedf0"><title>2025-12-04: 0 accepted submissions</title></rect><rect x="537" y="352" width="12" height="12" rx="2" fill="#ebedf0"><title>2025-12-05: 0 accepted submissions</title></rect><rect x="537" y="367" width="12" height="12" rx="2" fill="#ebedf0"><title>2025-12-06: 0 accepted submissions</title></rect><rect x="537" y="382" width="12" height="12" rx="2" fill="#ebedf0"><title>2025-12-07: 0 accepted submissions</title></rect><rect x="552" y="292" width="12" height="12" rx="2" fill="#ebedf0"><title>2025-12-08: 0 accepted submissions</title></rect><rect x="552" y="307" width="12" height="12" rx="2" fill="#ebedf0"><title>2025-12-09: 0 accepted submissions</title></rect><rect x="552" y="322" width="12" height="12" rx="2" fill="#ebedf0"><title>2025-12-10: 0 accepted submissions</title></rect><rect x="552" y="337" width="12" height="12" rx="2" fill="#ebedf0"><title>2025-12-11: 0 accepted submissions</title></rect><rect x="552" y="352" width="12" height="12" rx="2" fill="#ebedf0"><title>2025-12-12: 0 accepted submissions</title></rect><rect x="552" y="367" width="12" height="12" rx="2" fill="#ebedf0"><title>2025-12-13: 0 accepted submissions</title></rect><rect x="552" y="382" width="12" height="12" rx="2" fill="#ebedf0"><title>2025-12-14: 0 accepted submissions</title></rect><rect x="567" y="292" width="12" height="12" rx="2" fill="#ebedf0"><title>2025-12-15: 0 accepted submissions</title></rect><rect x="567" y="307" width="12" height="12" rx="2" fill="#ebedf0"><title>2025-12-16: 0 accepted submissions</title></rect><rect x="567" y="322" width="12" height="12" rx="2" fill="#ebedf0"><title>2025-12-17: 0 accepted submissions</title></rect><rect x="567" y="337" width="12" height="12" rx="2" fill="#ebedf0"><title>2025-12-18: 0 accepted submissions</title></rect><rect x="567" y="352" width="12" height="12" rx="2" fill="#ebedf0"><title>2025-12-19: 0 accepted submissions</title></rect><rect x="567" y="367" width="12" height="12" rx="2" fill="#ebedf0"><title>2025-12-20: 0 accepted submissions</title></rect><rect x="567" y="382" width="12" height="12" rx="2" fill="#ebedf0"><title>2025-12-21: 0 accepted submissions</title></rect><rect x="582" y="292" width="12" height="12" rx="2" fill="#ebedf0"><title>2025-12-22: 0 accepted submissions</title></rect><rect x="582" y="307" width="12" height="12" rx="2" fill="#ebedf0"><title>2025-12-23: 0 accepted submissions</title></rect><rect x="582" y="322" width="12" height="12" rx="2" fill="#ebedf0"><title>2025-12-24: 0 accepted submissions</title></rect><rect x="582" y="337" width="12" height="12" rx="2" fill="#ebedf0"><title>2025-12-25: 0 accepted submissions</title></rect><rect x="582" y="352" width="12" height="12" rx="2" fill="#ebedf0"><title>2025-12-26: 0 accepted submissions</title></rect><rect x="582" y="367" width="12" height="12" rx="2" fill="#ebedf0"><title>2025-12-27: 0 accepted submissions</title></rect><rect x="582" y="382" width="12" height="12" rx="2" fill="#ebedf0"><title>2025-12-28: 0 accepted submissions</title></rect><rect x="597" y="292" width="12" height="12" rx="2" fill="#ebedf0"><title>2025-12-29: 0 accepted submissions</title></rect><rect x="597" y="307" width="12" height="12" rx="2" fill="#ebedf0"><title>2025-12-30: 0 accepted submissions</title></rect><rect x="597" y="322" width="12" height="12" rx="2" fill="#ebedf0"><title>2025-12-31: 0 accepted submissions</title></rect><rect x="597" y="337" width="12" height="12" rx="2" fill="#ebedf0"><title>2026-01-01: 0 accepted submissions</title></rect><rect x="597" y="352" width="12" height="12" rx="2" fill="#ebedf0"><title>2026-01-02: 0 accepted submissions</title></rect><rect x="597" y="367" width="12" height="12" rx="2" fill="#ebedf0"><title>2026-01-03: 0 accepted submissions</title></rect><rect x="597" y="382" width="12" height="12" rx="2" fill="#ebedf0"><title>2026-01-04: 0 accepted submissions</title></rect><rect x="612" y="292" width="12" height="12" rx="2" fill="#ebedf0"><title>2026-01-05: 0 accepted submissions</title></rect><rect x="612" y="307" width="12" height="12" rx="2" fill="#ebedf0"><title>2026-01-06: 0 accepted submissions</title></rect><rect x="612" y="322" width="12" height="12" rx="2" fill="#ebedf0"><title>2026-01-07: 0 accepted submissions</title></rect><rect x="612" y="337" width="12" height="12" rx="2" fill="#ebedf0"><title>2026-01-08: 0 accepted submissions</title></rect><rect x="612" y="352" width="12" height="12" rx="2" fill="#ebedf0"><title>2026-01-09: 0 accepted submissions</title></rect><rect x="612" y="367" width="12" height="12" rx="2" fill="#ebedf0"><title>2026-01-10: 0 accepted submissions</title></rect><rect x="612" y="382" width="12" height="12" rx="2" fill="#ebedf0"><title>2026-01-11: 0 accepted submissions</title></rect><rect x="627" y="292" width="12" height="12" rx="2" fill="#ebedf0"><title>2026-01-12: 0 accepted submissions</title></rect><rect x="627" y="307" width="12" height="12" rx="2" fill="#ebedf0"><title>2026-01-13: 0 accepted submissions</title></rect><rect x="627" y="322" width="12" height="12" rx="2" fill="#ebedf0"><title>2026-01-14: 0 accepted submissions</title></rect><rect x="627" y="337" width="12" height="12" rx="2" fill="#ebedf0"><title>2026-01-15: 0 accepted submissions</title></rect><rect x="627" y="352" width="12" height="12" rx="2" fill="#ebedf0"><title>2026-01-16: 0 accepted submissions</title></rect><rect x="627" y="367" width="12" height="12" rx="2" fill="#ebedf0"><title>2026-01-17: 0 accepted submissions</title></rect><rect x="627" y="382" width="12" height="12" rx="2" fill="#ebedf0"><title>2026-01-18: 0 accepted submissions</title></rect><rect x="642" y="292" width="12" height="12" rx="2" fill="#ebedf0"><title>2026-01-19: 0 accepted submissions</title></rect><rect x="642" y="307" width="12" height="12" rx="2" fill="#ebedf0"><title>2026-01-20: 0 accepted submissions</title></rect><rect x="642" y="322" width="12" height="12" rx="2" fill="#ebedf0"><title>2026-01-21: 0 accepted submissions</title></rect><rect x="642" y="337" width="12" height="12" rx="2" fill="#ebedf0"><title>2026-01-22: 0 accepted submissions</title></rect><rect x="642" y="352" width="12" height="12" rx="2" fill="#ebedf0"><title>2026-01-23: 0 accepted submissions</title></rect><rect x="642" y="367" width="12" height="12" rx="2" fill="#ebedf0"><title>2026-01-24: 0 accepted submissions</title></rect><rect x="642" y="382" width="12" height="12" rx="2" fill="#ebedf0"><title>2026-01-25: 0 accepted submissions</title></rect><rect x="657" y="292" width="12" height="12" rx="2" fill="#ebedf0"><title>2026-01-26: 0 accepted submissions</title></rect><rect x="657" y="307" width="12" height="12" rx="2" fill="#ebedf0"><title>2026-01-27: 0 accepted submissions</title></rect><rect x="657" y="322" width="12" height="12" rx="2" fill="#ebedf0"><title>2026-01-28: 0 accepted submissions</title></rect><rect x="657" y="337" width="12" height="12" rx="2" fill="#ebedf0"><title>2026-01-29: 0 accepted submissions</title></rect><rect x="657" y="352" width="12" height="12" rx="2" fill="#ebedf0"><title>2026-01-30: 0 accepted submissions</title></rect><rect x="657" y="367" width="12" height="12" rx="2" fill="#ebedf0"><title>2026-01-31: 0 accepted submissions</title></rect><rect x="657" y="382" width="12" height="12" rx="2" fill="#ebedf0"><title>2026-02-01: 0 accepted submissions</title></rect><rect x="672" y="292" width="12" height="12" rx="2" fill="#ebedf0"><title>2026-02-02: 0 accepted submissions</title></rect><rect x="672" y="307" width="12" height="12" rx="2" fill="#ebedf0"><title>2026-02-03: 0 accepted submissions</title></rect><rect x="672" y="322" width="12" height="12" rx="2" fill="#ebedf0"><title>2026-02-04: 0 accepted submissions</title></rect><rect x="672" y="337" width="12" height="12" rx="2" fill="#ebedf0"><title>2026-02-05: 0 accepted submissions</title></rect><rect x="672" y="352" width="12" height="12" rx="2" fill="#ebedf0"><title>2026-02-06: 0 accepted submissions</title></rect><rect x="672" y="367" width="12" height="12" rx="2" fill="#ebedf0"><title>2026-02-07: 0 accepted submissions</title></rect><rect x="672" y="382" width="12" height="12" rx="2" fill="#ebedf0"><title>2026-02-08: 0 accepted submissions</title></rect><rect x="687" y="292" width="12" height="12" rx="2" fill="#ebedf0"><title>2026-02-09: 0 accepted submissions</title></rect><rect x="687" y="307" width="12" height="12" rx="2" fill="#ebedf0"><title>2026-02-10: 0 accepted submissions</title></rect><rect x="687" y="322" width="12" height="12" rx="2" fill="#ebedf0"><title>2026-02-11: 0 accepted submissions</title></rect><rect x="687" y="337" width="12" height="12" rx="2" fill="#ebedf0"><title>2026-02-12: 0 accepted submissions</title></rect><rect x="687" y="352" width="12" height="12" rx="2" fill="#ebedf0"><title>2026-02-13: 0 accepted submissions</title></rect><rect x="687" y="367" width="12" height="12" rx="2" fill="#ebedf0"><title>2026-02-14: 0 accepted submissions</title></rect><rect x="687" y="382" width="12" height="12" rx="2" fill="#ebedf0"><title>2026-02-15: 0 accepted submissions</title></rect><rect x="702" y="292" width="12" height="12" rx="2" fill="#ebedf0"><title>2026-02-16: 0 accepted submissions</title></rect><rect x="702" y="307" width="12" height="12" rx="2" fill="#ebedf0"><title>2026-02-17: 0 accepted submissions</title></rect><rect x="702" y="322" width="12" height="12" rx="2" fill="#ebedf0"><title>2026-02-18: 0 accepted submissions</title></rect><rect x="702" y="337" width="12" height="12" rx="2" fill="#ebedf0"><title>2026-02-19: 0 accepted submissions</title></rect><rect x="702" y="352" width="12" height="12" rx="2" fill="#ebedf0"><title>2026-02-20: 0 accepted submissions</title></rect><rect x="702" y="367" width="12" height="12" rx="2" fill="#ebedf0"><title>2026-02-21: 0 accepted submissions</title></rect><rect x="702" y="382" width="12" height="12" rx="2" fill="#ebedf0"><title>2026-02-22: 0 accepted submissions</title></rect><rect x="717" y="292" width="12" height="12" rx="2" fill="#ebedf0"><title>2026-02-23: 0 accepted submissions</title></rect><rect x="717" y="307" width="12" height="12" rx="2" fill="#ebedf0"><title>2026-02-24: 0 accepted submissions</title></rect><rect x="717" y="322" width="12" height="12" rx="2" fill="#ebedf0"><title>2026-02-25: 0 accepted submissions</title></rect><rect x="717" y="337" width="12" height="12" rx="2" fill="#ebedf0"><title>2026-02-26: 0 accepted submissions</title></rect><rect x="717" y="352" width="12" height="12" rx="2" fill="#ebedf0"><title>2026-02-27: 0 accepted submissions</title></rect><rect x="717" y="367" width="12" height="12" rx="2" fill="#ebedf0"><title>2026-02-28: 0 accepted submissions</title></rect><rect x="717" y="382" width="12" height="12" rx="2" fill="#ebedf0"><title>2026-03-01: 0 accepted submissions</title></rect><rect x="732" y="292" width="12" height="12" rx="2" fill="#ebedf0"><title>2026-03-02: 0 accepted submissions</title></rect><rect x="732" y="307" width="12" height="12" rx="2" fill="#ebedf0"><title>2026-03-03: 0 accepted submissions</title></rect><rect x="732" y="322" width="12" height="12" rx="2" fill="#ebedf0"><title>2026-03-04: 0 accepted submissions</title></rect><rect x="732" y="337" width="12" height="12" rx="2" fill="#ebedf0"><title>2026-03-05: 0 accepted submissions</title></rect><rect x="732" y="352" width="12" height="12" rx="2" fill="#ebedf0"><title>2026-03-06: 0 accepted submissions</title></rect><rect x="732" y="367" width="12" height="12" rx="2" fill="#ebedf0"><title>2026-03-07: 0 accepted submissions</title></rect><rect x="732" y="382" width="12" height="12" rx="2" fill="#ebedf0"><title>2026-03-08: 0 accepted submissions</title></rect><rect x="747" y="292" width="12" height="12" rx="2" fill="#ebedf0"><title>2026-03-09: 0 accepted submissions</title></rect><rect x="747" y="307" width="12" height="12" rx="2" fill="#ebedf0"><title>2026-03-10: 0 accepted submissions</title></rect><rect x="747" y="322" width="12" height="12" rx="2" fill="#ebedf0"><title>2026-03-11: 0 accepted submissions</title></rect><rect x="747" y="337" width="12" height="12" rx="2" fill="#ebedf0"><title>2026-03-12: 0 accepted submissions</title></rect><rect x="747" y="352" width="12" height="12" rx="2" fill="#ebedf0"><title>2026-03-13: 0 accepted submissions</title></rect><rect x="747" y="367" width="12" height="12" rx="2" fill="#ebedf0"><title>2026-03-14: 0 accepted submissions</title></rect><rect x="747" y="382" width="12" height="12" rx="2" fill="#ebedf0"><title>2026-03-15: 0 accepted submissions</title></rect><rect x="762" y="292" width="12" height="12" rx="2" fill="#ebedf0"><title>2026-03-16: 0 accepted submissions</title></rect><rect x="762" y="307" width="12" height="12" rx="2" fill="#ebedf0"><title>2026-03-17: 0 accepted submissions</title></rect><rect x="762" y="322" width="12" height="12" rx="2" fill="#ebedf0"><title>2026-03-18: 0 accepted submissions</title></rect><rect x="762" y="337" width="12" height="12" rx="2" fill="#ebedf0"><title>2026-03-19: 0 accepted submissions</title></rect><rect x="762" y="352" width="12" height="12" rx="2" fill="#ebedf0"><title>2026-03-20: 0 accepted submissions</title></rect><rect x="762" y="367" width="12" height="12" rx="2" fill="#ebedf0"><title>2026-03-21: 0 accepted submissions</title></rect><rect x="762" y="382" width="12" height="12" rx="2" fill="#ebedf0"><title>2026-03-22: 0 accepted submissions</title></rect><rect x="777" y="292" width="12" height="12" rx="2" fill="#ebedf0"><title>2026-03-23: 0 accepted submissions</title></rect><rect x="777" y="307" width="12" height="12" rx="2" fill="#ebedf0"><title>2026-03-24: 0 accepted submissions</title></rect><rect x="777" y="322" width="12" height="12" rx="2" fill="#ebedf0"><title>2026-03-25: 0 accepted submissions</title></rect><rect x="777" y="337" width="12" height="12" rx="2" fill="#ebedf0"><title>2026-03-26: 0 accepted submissions</title></rect><rect x="777" y="352" width="12" height="12" rx="2" fill="#ebedf0"><title>2026-03-27: 0 accepted submissions</title></rect><rect x="777" y="367" width="12" height="12" rx="2" fill="#ebedf0"><title>2026-03-28: 0 accepted submissions</title></rect><rect x="777" y="382" width="12" height="12" rx="2" fill="#ebedf0"><title>2026-03-29: 0 accepted submissions</title></rect><rect x="792" y="292" width="12" height="12" rx="2" fill="#ebedf0"><title>2026-03-30: 0 accepted submissions</title></rect><rect x="792" y="307" width="12" height="12" rx="2" fill="#ebedf0"><title>2026-03-31: 0 accepted submissions</title></rect><rect x="792" y="322" width="12" height="12" rx="2" fill="#ebedf0"><title>2026-04-01: 0 accepted submissions</title></rect><rect x="792" y="337" width="12" height="12" rx="2" fill="#ebedf0"><title>2026-04-02: 0 accepted submissions</title></rect><rect x="792" y="352" width="12" height="12" rx="2" fill="#ebedf0"><title>2026-04-03: 0 accepted submissions</title></rect><rect x="792" y="367" width="12" height="12" rx="2" fill="#ebedf0"><title>2026-04-04: 0 accepted submissions</title></rect><rect x="792" y="382" width="12" height="12" rx="2" fill="#ebedf0"><title>2026-04-05: 0 accepted submissions</title></rect><rect x="807" y="292" width="12" height="12" rx="2" fill="#ebedf0"><title>2026-04-06: 0 accepted submissions</title></rect><rect x="807" y="307" width="12" height="12" rx="2" fill="#ebedf0"><title>2026-04-07: 0 accepted submissions</title></rect><rect x="807" y="322" width="12" height="12" rx="2" fill="#ebedf0"><title>2026-04-08: 0 accepted submissions</title></rect><rect x="807" y="337" width="12" height="12" rx="2" fill="#ebedf0"><title>2026-04-09: 0 accepted submissions</title></rect><rect x="807" y="352" width="12" height="12" rx="2" fill="#ebedf0"><title>2026-04-10: 0 accepted submissions</title></rect><rect x="807" y="367" width="12" height="12" rx="2" fill="#ebedf0"><title>2026-04-11: 0 accepted submissions</title></rect><rect x="807" y="382" width="12" height="12" rx="2" fill="#ebedf0"><title>2026-04-12: 0 accepted submissions</title></rect><rect x="822" y="292" width="12" height="12" rx="2" fill="#ebedf0"><title>2026-04-13: 0 accepted submissions</title></rect><rect x="822" y="307" width="12" height="12" rx="2" fill="#ebedf0"><title>2026-04-14: 0 accepted submissions</title></rect><rect x="822" y="322" width="12" height="12" rx="2" fill="#ebedf0"><title>2026-04-15: 0 accepted submissions</title></rect><rect x="822" y="337" width="12" height="12" rx="2" fill="#ebedf0"><title>2026-04-16: 0 accepted submissions</title></rect><rect x="822" y="352" width="12" height="12" rx="2" fill="#ebedf0"><title>2026-04-17: 0 accepted submissions</title></rect><rect x="822" y="367" width="12" height="12" rx="2" fill="#ebedf0"><title>2026-04-18: 0 accepted submissions</title></rect><rect x="822" y="382" width="12" height="12" rx="2" fill="#216e39"><title>2026-04-19: 6 accepted submissions</title></rect><rect x="837" y="292" width="12" height="12" rx="2" fill="#216e39"><title>2026-04-20: 5 accepted submissions</title></rect><rect x="837" y="307" width="12" height="12" rx="2" fill="#30a14e"><title>2026-04-21: 4 accepted submissions</title></rect><rect x="837" y="322" width="12" height="12" rx="2" fill="#216e39"><title>2026-04-22: 8 accepted submissions</title></rect><rect x="837" y="337" width="12" height="12" rx="2" fill="#216e39"><title>2026-04-23: 5 accepted submissions</title></rect><rect x="837" y="352" width="12" height="12" rx="2" fill="#ebedf0"><title>2026-04-24: 0 accepted submissions</title></rect><rect x="837" y="367" width="12" height="12" rx="2" fill="#ebedf0"><title>2026-04-25: 0 accepted submissions</title></rect><rect x="837" y="382" width="12" height="12" rx="2" fill="#ebedf0"><title>2026-04-26: 0 accepted submissions</title></rect><rect x="852" y="292" width="12" height="12" rx="2" fill="#30a14e"><title>2026-04-27: 3 accepted submissions</title></rect><rect x="852" y="307" width="12" height="12" rx="2" fill="#216e39"><title>2026-04-28: 8 accepted submissions</title></rect><rect x="852" y="322" width="12" height="12" rx="2" fill="#ebedf0"><title>2026-04-29: 0 accepted submissions</title></rect>
<rect x="698" y="374" width="12" height="12" rx="2" fill="#ebedf0"/>
<rect x="718" y="374" width="12" height="12" rx="2" fill="#9be9a8"/>
<rect x="738" y="374" width="12" height="12" rx="2" fill="#40c463"/>
<rect x="758" y="374" width="12" height="12" rx="2" fill="#30a14e"/>
<rect x="778" y="374" width="12" height="12" rx="2" fill="#216e39"/>
<text x="634" y="384" class="muted small">Less</text>
<text x="798" y="384" class="muted small">More</text>
<!-- Avatar source: https://userpic.codeforces.org/4873128/title/513ce3c1d62dc48.jpg -->
</svg>
